<svg width="129" height="29" viewBox="0 0 129 29" fill="none" xmlns="http://www.w3.org/2000/svg">
<path d="M19.0528 17.0032C18.7688 17.0032 18.5033 17.1124 18.3052 17.3105L14.31 21.3059C13.8977 21.718 13.8977 22.3888 14.3098 22.8011L16.3484 24.84C16.5464 25.0381 16.8119 25.1472 17.0958 25.1472C17.3797 25.1472 17.6452 25.0381 17.8432 24.84L21.8392 20.8439C22.0372 20.6455 22.1464 20.3802 22.1464 20.0961C22.1464 19.8123 22.0372 19.5469 21.8392 19.3487L19.8004 17.3104C19.6023 17.1124 19.3368 17.0032 19.0528 17.0032ZM17.0958 27C16.317 27 15.5861 26.6981 15.0382 26.1499L12.9996 24.1111C11.8653 22.9764 11.8653 21.1303 13 19.9957L16.9952 16.0003C17.543 15.4524 18.274 15.1504 19.0528 15.1504C19.8316 15.1504 20.5622 15.4522 21.1103 16.0002L23.1491 18.0386C23.6973 18.5866 23.999 19.3173 23.9991 20.0961C23.9991 20.875 23.6974 21.6057 23.1494 22.1538L19.1532 26.1499C18.6053 26.6981 17.8745 27 17.0958 27Z" fill="#222222"/>
<path d="M4.94593 17.0032C4.66191 17.0032 4.39639 17.1124 4.19825 17.3104L2.15994 19.3487C1.96172 19.5469 1.85271 19.8123 1.85271 20.0961C1.85261 20.3802 1.96172 20.6455 2.15994 20.8439L6.15575 24.84C6.35395 25.0381 6.6194 25.1472 6.90327 25.1472C7.1872 25.1472 7.45273 25.0381 7.65087 24.8398L9.69007 22.801C9.88807 22.6028 9.99727 22.3373 9.99727 22.0534C9.99727 21.7696 9.88807 21.504 9.68993 21.306L5.69373 17.3104C5.4955 17.1124 5.23001 17.0032 4.94593 17.0032ZM6.90327 27C6.12448 27 5.39365 26.6981 4.84573 26.1499L0.84976 22.1538C0.301763 21.6057 0 20.875 0 20.0961C0 19.3173 0.301939 18.5866 0.850053 18.0386L2.88817 16.0002C3.43634 15.4522 4.16709 15.1504 4.94593 15.1504C5.72469 15.1504 6.45545 15.4522 7.00353 16.0002L10.9998 19.9958C11.5479 20.5439 11.8499 21.2746 11.8501 22.0534C11.8501 22.8323 11.5481 23.563 11.0001 24.1112L8.9608 26.15C8.4128 26.6981 7.68207 27 6.90327 27Z" fill="#222222"/>
<path d="M6.90327 4.85287C6.6194 4.85287 6.35395 4.96194 6.15587 5.16008L2.15977 9.15631C1.96172 9.35445 1.85261 9.61983 1.85261 9.90387C1.85261 10.1879 1.96172 10.4533 2.15994 10.6514L4.19835 12.6899C4.3964 12.8881 4.66191 12.9971 4.94593 12.9971C5.22989 12.9971 5.49532 12.8879 5.69337 12.6899L9.6892 8.69355C10.1014 8.28148 10.1013 7.61066 9.6892 7.19844L7.65087 5.16008C7.45273 4.96194 7.1872 4.85287 6.90327 4.85287ZM4.94593 14.8499C4.16709 14.8499 3.43634 14.5481 2.88835 14.0001L0.849873 11.9615C0.301763 11.4134 7.71601e-08 10.6828 7.71601e-08 9.90387C-0.000176221 9.12502 0.301763 8.39432 0.84976 7.84625L4.84573 3.85001C5.39365 3.30194 6.12448 3 6.90327 3C7.68207 3 8.4128 3.30194 8.96093 3.85001L10.9993 5.88838C12.1337 7.02303 12.1339 8.86897 10.9994 10.0036L7.00353 14C6.45545 14.5479 5.72469 14.8499 4.94593 14.8499Z" fill="#222222"/>
<path d="M17.0958 4.85288C16.8118 4.85288 16.5463 4.96196 16.3483 5.16009L14.3098 7.19891C14.1116 7.39704 14.0025 7.66257 14.0025 7.94646C14.0025 8.23035 14.1116 8.49589 14.3098 8.69387L18.3056 12.6895C18.5037 12.8877 18.7692 12.9969 19.0531 12.9969C19.3371 12.9969 19.6028 12.8877 19.8008 12.6897L21.8397 10.6513C22.0378 10.453 22.147 10.1877 22.147 9.90387C22.147 9.61985 22.0378 9.35462 21.8398 9.15649L17.8432 5.16009C17.6451 4.9618 17.3796 4.85288 17.0958 4.85288ZM19.0531 14.8494C18.2744 14.8494 17.5436 14.5476 16.9955 13.9997L12.9998 10.0041C12.4517 9.45602 12.1499 8.72531 12.1499 7.94646C12.1498 7.16761 12.4517 6.43691 12.9996 5.88884L15.0381 3.85002C15.586 3.30196 16.3169 3.00002 17.0958 3.00002C17.8744 3.00002 18.6052 3.30181 19.1533 3.84988L23.1499 7.84627C23.6978 8.39434 23.9998 9.12504 23.9998 9.90387C23.9996 10.6828 23.6976 11.4134 23.1496 11.9615L21.1107 13.9999C20.5628 14.5476 19.8319 14.8494 19.0531 14.8494Z" fill="#222222"/>
<path d="M7.05258 8.87273C6.40172 8.87273 5.8723 9.40229 5.8723 10.0533V19.9466C5.8723 20.5974 6.40172 21.1272 7.05258 21.1272H16.9461C17.597 21.1272 18.1264 20.5974 18.1264 19.9466V10.0533C18.1264 9.40229 17.597 8.87273 16.9461 8.87273H7.05258ZM16.9461 22.9797H7.05258C5.38013 22.9797 4.01953 21.6191 4.01953 19.9466V10.0533C4.01953 8.38078 5.38013 7.02001 7.05258 7.02001H16.9461C18.6185 7.02001 19.9792 8.38078 19.9792 10.0533V19.9466C19.9792 21.6191 18.6185 22.9797 16.9461 22.9797Z" fill="#222222"/>
<path d="M32.9176 5.54545H36.1136L41.6705 19.1136H41.875L47.4318 5.54545H50.6278V23H48.1222V10.3693H47.9602L42.8125 22.9744H40.733L35.5852 10.3608H35.4233V23H32.9176V5.54545ZM56.5618 23.2898C55.7322 23.2898 54.9822 23.1364 54.3118 22.8295C53.6413 22.517 53.1101 22.0653 52.718 21.4744C52.3317 20.8835 52.1385 20.1591 52.1385 19.3011C52.1385 18.5625 52.2805 17.9545 52.5646 17.4773C52.8487 17 53.2322 16.6222 53.7152 16.3438C54.1982 16.0653 54.7379 15.8551 55.3345 15.7131C55.9311 15.571 56.5391 15.4631 57.1584 15.3892C57.9425 15.2983 58.5788 15.2244 59.0675 15.1676C59.5561 15.1051 59.9112 15.0057 60.1328 14.8693C60.3544 14.733 60.4652 14.5114 60.4652 14.2045V14.1449C60.4652 13.4006 60.255 12.8239 59.8345 12.4148C59.4197 12.0057 58.8004 11.8011 57.9766 11.8011C57.1186 11.8011 56.4425 11.9915 55.9482 12.3722C55.4595 12.7472 55.1214 13.1648 54.9339 13.625L52.5391 13.0795C52.8232 12.2841 53.2379 11.642 53.7834 11.1534C54.3345 10.6591 54.968 10.3011 55.6839 10.0795C56.3999 9.85227 57.1527 9.73864 57.9425 9.73864C58.4652 9.73864 59.0192 9.80114 59.6044 9.92614C60.1953 10.0455 60.7464 10.267 61.2578 10.5909C61.7749 10.9148 62.1982 11.3778 62.5277 11.9801C62.8572 12.5767 63.022 13.3523 63.022 14.3068V23H60.5334V21.2102H60.4311C60.2663 21.5398 60.0192 21.8636 59.6896 22.1818C59.3601 22.5 58.9368 22.7642 58.4197 22.9744C57.9027 23.1847 57.2834 23.2898 56.5618 23.2898ZM57.1158 21.2443C57.8203 21.2443 58.4226 21.1051 58.9226 20.8267C59.4283 20.5483 59.8118 20.1847 60.0732 19.7358C60.3402 19.2812 60.4737 18.7955 60.4737 18.2784V16.5909C60.3828 16.6818 60.2067 16.767 59.9453 16.8466C59.6896 16.9205 59.397 16.9858 59.0675 17.0426C58.7379 17.0937 58.4169 17.142 58.1044 17.1875C57.7919 17.2273 57.5305 17.2614 57.3203 17.2898C56.826 17.3523 56.3743 17.4574 55.9652 17.6051C55.5618 17.7528 55.2379 17.9659 54.9936 18.2443C54.755 18.517 54.6357 18.8807 54.6357 19.3352C54.6357 19.9659 54.8686 20.4432 55.3345 20.767C55.8004 21.0852 56.3942 21.2443 57.1158 21.2443ZM64.9162 23V9.90909H67.4645V23H64.9162ZM66.2031 7.8892C65.7599 7.8892 65.3793 7.74148 65.0611 7.44602C64.7486 7.14489 64.5923 6.78693 64.5923 6.37216C64.5923 5.9517 64.7486 5.59375 65.0611 5.29829C65.3793 4.99716 65.7599 4.84659 66.2031 4.84659C66.6463 4.84659 67.0241 4.99716 67.3366 5.29829C67.6548 5.59375 67.8139 5.9517 67.8139 6.37216C67.8139 6.78693 67.6548 7.14489 67.3366 7.44602C67.0241 7.74148 66.6463 7.8892 66.2031 7.8892ZM71.9411 5.54545V23H69.3928V5.54545H71.9411ZM79.3835 23.2642C78.1165 23.2642 77.0256 22.9773 76.1108 22.4034C75.2017 21.8239 74.5028 21.0256 74.0142 20.0085C73.5256 18.9915 73.2812 17.8267 73.2812 16.5142C73.2812 15.1847 73.5312 14.0114 74.0312 12.9943C74.5312 11.9716 75.2358 11.1733 76.1449 10.5994C77.054 10.0256 78.125 9.73864 79.358 9.73864C80.3523 9.73864 81.2386 9.9233 82.017 10.2926C82.7955 10.6562 83.4233 11.1676 83.9006 11.8267C84.3835 12.4858 84.6705 13.2557 84.7614 14.1364H82.2812C82.1449 13.5227 81.8324 12.9943 81.3438 12.5511C80.8608 12.108 80.2131 11.8864 79.4006 11.8864C78.6903 11.8864 78.0682 12.0739 77.5341 12.4489C77.0057 12.8182 76.5938 13.3466 76.2983 14.0341C76.0028 14.7159 75.8551 15.5227 75.8551 16.4545C75.8551 17.4091 76 18.233 76.2898 18.9261C76.5795 19.6193 76.9886 20.1562 77.517 20.5369C78.0511 20.9176 78.679 21.108 79.4006 21.108C79.8835 21.108 80.321 21.0199 80.7131 20.8438C81.1108 20.6619 81.4432 20.4034 81.7102 20.0682C81.983 19.733 82.1733 19.3295 82.2812 18.858H84.7614C84.6705 19.7045 84.3949 20.4602 83.9347 21.125C83.4744 21.7898 82.858 22.3125 82.0852 22.6932C81.3182 23.0739 80.4176 23.2642 79.3835 23.2642ZM88.5348 15.2273V23H85.9865V5.54545H88.5007V12.0398H88.6626C88.9695 11.3352 89.4382 10.7756 90.0689 10.3608C90.6996 9.94602 91.5234 9.73864 92.5405 9.73864C93.4382 9.73864 94.2223 9.9233 94.8928 10.2926C95.5689 10.6619 96.0916 11.2131 96.4609 11.946C96.8359 12.6733 97.0234 13.5824 97.0234 14.6733V23H94.4751V14.9801C94.4751 14.0199 94.228 13.2756 93.7337 12.7472C93.2393 12.2131 92.5518 11.946 91.6712 11.946C91.0689 11.946 90.5291 12.0739 90.0518 12.3295C89.5803 12.5852 89.2081 12.9602 88.9354 13.4545C88.6683 13.9432 88.5348 14.5341 88.5348 15.2273ZM102.734 23.2898C101.904 23.2898 101.154 23.1364 100.484 22.8295C99.8132 22.517 99.282 22.0653 98.8899 21.4744C98.5036 20.8835 98.3104 20.1591 98.3104 19.3011C98.3104 18.5625 98.4524 17.9545 98.7365 17.4773C99.0206 17 99.4041 16.6222 99.8871 16.3438C100.37 16.0653 100.91 15.8551 101.506 15.7131C102.103 15.571 102.711 15.4631 103.33 15.3892C104.114 15.2983 104.751 15.2244 105.239 15.1676C105.728 15.1051 106.083 15.0057 106.305 14.8693C106.526 14.733 106.637 14.5114 106.637 14.2045V14.1449C106.637 13.4006 106.427 12.8239 106.006 12.4148C105.592 12.0057 104.972 11.8011 104.148 11.8011C103.29 11.8011 102.614 11.9915 102.12 12.3722C101.631 12.7472 101.293 13.1648 101.106 13.625L98.7109 13.0795C98.995 12.2841 99.4098 11.642 99.9553 11.1534C100.506 10.6591 101.14 10.3011 101.856 10.0795C102.572 9.85227 103.325 9.73864 104.114 9.73864C104.637 9.73864 105.191 9.80114 105.776 9.92614C106.367 10.0455 106.918 10.267 107.43 10.5909C107.947 10.9148 108.37 11.3778 108.7 11.9801C109.029 12.5767 109.194 13.3523 109.194 14.3068V23H106.705V21.2102H106.603C106.438 21.5398 106.191 21.8636 105.862 22.1818C105.532 22.5 105.109 22.7642 104.592 22.9744C104.075 23.1847 103.455 23.2898 102.734 23.2898ZM103.288 21.2443C103.992 21.2443 104.594 21.1051 105.094 20.8267C105.6 20.5483 105.984 20.1847 106.245 19.7358C106.512 19.2812 106.646 18.7955 106.646 18.2784V16.5909C106.555 16.6818 106.379 16.767 106.117 16.8466C105.862 16.9205 105.569 16.9858 105.239 17.0426C104.91 17.0937 104.589 17.142 104.276 17.1875C103.964 17.2273 103.702 17.2614 103.492 17.2898C102.998 17.3523 102.546 17.4574 102.137 17.6051C101.734 17.7528 101.41 17.9659 101.165 18.2443C100.927 18.517 100.808 18.8807 100.808 19.3352C100.808 19.9659 101.04 20.4432 101.506 20.767C101.972 21.0852 102.566 21.2443 103.288 21.2443ZM111.088 23V9.90909H113.636V23H111.088ZM112.375 7.8892C111.932 7.8892 111.551 7.74148 111.233 7.44602C110.92 7.14489 110.764 6.78693 110.764 6.37216C110.764 5.9517 110.92 5.59375 111.233 5.29829C111.551 4.99716 111.932 4.84659 112.375 4.84659C112.818 4.84659 113.196 4.99716 113.509 5.29829C113.827 5.59375 113.986 5.9517 113.986 6.37216C113.986 6.78693 113.827 7.14489 113.509 7.44602C113.196 7.74148 112.818 7.8892 112.375 7.8892ZM118.113 15.2273V23H115.565V9.90909H118.011V12.0398H118.173C118.474 11.3466 118.945 10.7898 119.587 10.3693C120.235 9.94886 121.05 9.73864 122.033 9.73864C122.925 9.73864 123.707 9.92614 124.377 10.3011C125.048 10.6705 125.567 11.2216 125.937 11.9545C126.306 12.6875 126.491 13.5937 126.491 14.6733V23H123.942V14.9801C123.942 14.0312 123.695 13.2898 123.201 12.7557C122.707 12.2159 122.028 11.946 121.164 11.946C120.573 11.946 120.048 12.0739 119.587 12.3295C119.133 12.5852 118.772 12.9602 118.505 13.4545C118.244 13.9432 118.113 14.5341 118.113 15.2273Z" fill="black"/>
</svg>
